<svg enable-background="new 0 0 128 128" viewBox="0 0 128 128" xmlns="http://www.w3.org/2000/svg" xmlns:xlink="http://www.w3.org/1999/xlink"><linearGradient id="a" gradientUnits="userSpaceOnUse" x1="28.504" x2="100.05" y1="88.467" y2="88.467"><stop offset="0" stop-color="#b63b3b"/><stop offset=".8818" stop-color="#d64449"/></linearGradient><linearGradient id="b" gradientUnits="userSpaceOnUse" x1="83.145" x2="121.7" y1="60.009" y2="60.009"><stop offset="0" stop-color="#9e3333"/><stop offset=".8818" stop-color="#d64449"/></linearGradient><linearGradient id="c" gradientUnits="userSpaceOnUse" x1="6.7662" x2="118" y1="56.937" y2="56.937"><stop offset="0" stop-color="#a83737"/><stop offset=".8818" stop-color="#d64449"/></linearGradient><linearGradient id="d" gradientUnits="userSpaceOnUse" x1="63.809" x2="63.809" y1="87" y2="115.79"><stop offset=".000036337" stop-color="#ff9d85"/><stop offset=".8818" stop-color="#ecdec9"/></linearGradient><radialGradient id="e" cx="86.558" cy="54.334" gradientUnits="userSpaceOnUse" r="3.8924"><stop offset="0" stop-color="#f79792"/><stop offset=".8818" stop-color="#ee7276"/></radialGradient><path d="m77 77c-14 4-26 10-41 14-3.04.87-5.51 2.89-7.5 5.45 23.19 8.76 49.56.97 70.5-10.45.34-.17.69-.31 1.05-.44-6.22-6.34-15.07-9.89-23.05-8.56z" fill="url(#a)"/><path d="m121 46c-.71-2.85-1.93-5.71-2.21-8.92-16.14 7.74-40.52 16.68-34.79 32.92 2.37 5.91 9.98 11.12 18.91 12.94 9.77-10.34 21.84-21 18.09-36.94z" fill="url(#b)"/><path d="m120.29 36.35c-.67-1.18-1.43-2.28-2.29-3.27-7.81 8.42-22.6 11.55-32 16.92-9 5-7 19-17 26-14 8-28 12-43 11-2 0-5 0-8-1-4-1-7-4-9-7-2.48-4.97-2.74-10.11-1.54-14.93-2.3 4.21-3.58 8.74-3.86 13.3 3.86 11.56 12.22 18.7 22.64 22.55 20.36 7.52 48.64 2.46 66.76-6.92 3.14-1.57 6.06-3.44 8.79-5.53-.55-.66-1.14-1.29-1.74-1.91-.36.13-.71.27-1.05.44-20.94 11.42-47.31 19.21-70.5 10.45 1.99-2.56 4.45-4.58 7.5-5.45 15-4 27-10 41-14 8.75-1.46 18.56 2.94 24.79 10.47 1.62-1.24 3.15-2.58 4.62-3.99 8.18-7.82 14.11-18 17.67-29.15.13-6.84-1.06-13.14-3.79-17.98zm-17.38 46.59c.57.12 1.14.22 1.72.31-.57-.09-1.15-.19-1.72-.31zm0 0c-8.93-1.82-16.54-7.03-18.91-12.94-5.73-16.24 18.65-25.18 34.79-32.92.28 3.22 1.5 6.07 2.21 8.92 3.75 15.94-8.32 26.6-18.09 36.94z" fill="#f5f7ea"/><path d="m118 33.08c-2.5-2.89-5.81-4.92-10.04-5.73-15.97-3.06-10.87 5.77-34.65 12.91-14.86 4.46-47.79 3.82-59.97 15.99-2.41 2.41-4.37 5.05-5.88 7.83-1.2 4.81-.94 9.95 1.54 14.92 2 3 5 6 9 7 3 1 6 1 8 1 15 1 29-3 43-11 15.5-5.75 8-21 17-26 9.4-5.37 24.19-8.5 32-16.92z" fill="url(#c)"/><path d="m93 93c-27.4 14.17-78 18.52-89.41-15.62-.47 7.63 1.86 15.36 6.89 21.83 10.02 12.89 23.99 18.97 49.76 15.39 25.78-3.58 49.4-14.32 58.35-35.44 3.37-7.95 5.34-16.75 5.49-24.82-5.28 16.52-15.75 30.99-31.08 38.66z" fill="url(#d)"/><path d="m95.83 54.33c-1.27 3.01-4.45 6.67-10 6.67s-10.17-3.57-10.17-6.83c0-3.27 5.33-5 10.89-5.75 5.51-.74 10.62 2.75 9.28 5.91z" fill="#f5f7ea"/><ellipse cx="86.56" cy="54.33" fill="#ffdecd" rx="7.51" ry="4.42"/><ellipse cx="86.56" cy="54.33" fill="url(#e)" rx="4.74" ry="2.79"/><path d="m102.36 29.72c1.39 0 3.03.19 5.03.57 3.36.64 6.17 2.24 8.34 4.75.7.81 1.36 1.75 1.94 2.79 2.3 4.06 3.48 9.59 3.41 16.01-.32.96-.68 2-1.12 3.17-.43 1.13-.12 2.36.68 3.17-.74 5.93-2.39 12.08-4.82 17.8-10.13 23.91-39.44 31.34-56 33.64-4.71.65-9.11.98-13.09.98-15.24 0-25.69-4.7-33.89-15.25-4.44-5.71-6.67-12.7-6.27-19.69 0-.05.01-.11.01-.17.27-4.19 1.44-8.23 3.5-11.99 1.42-2.59 3.22-5 5.37-7.15 7.49-7.49 25.15-9.87 39.33-11.79 7.36-.99 14.31-1.93 19.38-3.45 11.39-3.42 16.49-7.24 20.22-10.03 3.02-2.23 4.53-3.36 7.98-3.36m0-3c-9.51 0-8.6 7.39-29.05 13.53-14.86 4.46-47.79 3.82-59.97 15.99-2.41 2.41-4.37 5.05-5.88 7.83-2.3 4.21-3.58 8.74-3.86 13.3v.06s0-.02 0-.06c-.47 7.63 1.86 15.36 6.89 21.83 8.11 10.43 18.81 16.41 36.26 16.41 4.11 0 8.59-.33 13.5-1.01 25.78-3.58 49.4-14.32 58.35-35.44 3.37-7.95 5.34-16.75 5.49-24.82-.03.1-.06.19-.09.29-.38 1.16-.79 2.31-1.21 3.44.43-1.14.84-2.28 1.21-3.44.03-.1.06-.19.09-.29.13-6.84-1.06-13.14-3.8-17.98-.67-1.18-1.43-2.28-2.29-3.27-2.5-2.89-5.81-4.92-10.04-5.73-2.23-.44-4.05-.64-5.6-.64z" fill="#424242" opacity=".2"/></svg>