<?xml version="1.0" ?><svg viewBox="0 0 291.88 441.27" xmlns="http://www.w3.org/2000/svg"><title/><g data-name="Layer 2" id="Layer_2"><g data-name="noodle, cuisine, chinese, pasta, japanese, noodles, food, meal, fast, restaurant, junk, fastfood" id="noodle_cuisine_chinese_pasta_japanese_noodles_food_meal_fast_restaurant_junk_fastfood"><path d="M272.86,235.37a46,46,0,0,1-9.22-.5,5.39,5.39,0,0,0-1.89,10.62,56.09,56.09,0,0,0,11.73.64,7.1,7.1,0,0,1,6.12,11.45,6.91,6.91,0,0,1-5.33,2.7,63.59,63.59,0,0,1-18.41-2.14c-6.34-4.63-9.56-11.13-9.56-19.42V134.56A78.38,78.38,0,0,0,178,56.92a5.39,5.39,0,1,0-1.36,10.69,67.57,67.57,0,0,1,58.89,67V238.72c0,10.84,4.2,20,12,26.57a5.39,5.39,0,0,0,3.08,2.54l.61.18a43.46,43.46,0,0,0,5.3,3,8,8,0,0,1,4.51,8.5,7.92,7.92,0,0,1-4,5.65,8,8,0,0,1-7,.38c-31.5-13.13-29.74-44.46-29.65-45.76,0-.14,0-.27,0-.41V134.56A52.44,52.44,0,0,0,168,82.18a53.08,53.08,0,0,0-10.31,1,5.39,5.39,0,0,0,2.11,10.57A42.37,42.37,0,0,1,168,93a41.65,41.65,0,0,1,41.61,41.6V239.22c-.16,3.62-.8,40.78,36.28,56.23A18.7,18.7,0,0,0,270.47,271c.69,0,1.39,0,2.09,0l2,0a17.85,17.85,0,0,0,16.9-21.91A17.9,17.9,0,0,0,272.86,235.37Z"/><path d="M174.21,40.85a5.39,5.39,0,1,0,9.42-5.24A69.23,69.23,0,0,0,123.15,0,68.51,68.51,0,0,0,92.78,7a5.39,5.39,0,0,0,4.74,9.68,57.84,57.84,0,0,1,25.63-5.91A58.45,58.45,0,0,1,174.21,40.85Z"/><path d="M67.31,43.75A5.38,5.38,0,0,0,72,41,58.35,58.35,0,0,1,83.09,26.7a5.39,5.39,0,0,0-7.4-7.83,69.21,69.21,0,0,0-13.1,16.88,5.39,5.39,0,0,0,4.72,8Z"/><path d="M90,44.24a5.39,5.39,0,0,0,7.62-.08,35.73,35.73,0,0,1,51.07,0,5.39,5.39,0,1,0,7.7-7.54,46.5,46.5,0,0,0-66.47,0A5.39,5.39,0,0,0,90,44.24Z"/><path d="M186.6,132.49a5.38,5.38,0,0,0,5.35,4.8l.59,0a5.39,5.39,0,0,0,4.77-5.95A29.4,29.4,0,0,0,168,105.11a5.39,5.39,0,0,0,0,10.78A18.65,18.65,0,0,1,186.6,132.49Z"/><path d="M230.58,312.74a5.39,5.39,0,0,0-5.73,5l-4.34,66.53c-28.11-2.91-67.61-11.92-105.61-37.47C84.43,326.34,52.91,315,21.15,313L13.87,201.4c23.81-3.52,67.07-2.82,117.27,30.93a234.09,234.09,0,0,0,59.74,28.76,5.39,5.39,0,0,0,3.26-10.28,223.47,223.47,0,0,1-57-27.42c-52.53-35.33-98.29-36.4-124-32.78l-2-31H186.9a5.39,5.39,0,0,0,0-10.78H5.39A5.41,5.41,0,0,0,0,154.59L17.2,418.07A24.87,24.87,0,0,0,42,441.27H204.35a24.88,24.88,0,0,0,24.76-23.2l6.49-99.6A5.38,5.38,0,0,0,230.58,312.74ZM204.35,430.49H42a14.06,14.06,0,0,1-14-13.12l-6.11-93.55c29.37,2.12,58.62,12.85,87,32,40,26.9,81.51,36.29,110.91,39.28l-1.45,22.31A14.06,14.06,0,0,1,204.35,430.49Z"/><path d="M52.78,66.05a5.38,5.38,0,0,0,6.67,3.68,67.54,67.54,0,0,1,86.31,64.83,5.39,5.39,0,1,0,10.78,0A78.31,78.31,0,0,0,56.45,59.38,5.37,5.37,0,0,0,52.78,66.05Z"/><path d="M37.44,79.58a5.36,5.36,0,0,0,3-.93l1-.7a5.39,5.39,0,1,0-5.87-9l-1.24.82a5.39,5.39,0,0,0,3,9.85Z"/><path d="M19.11,83.31a78.47,78.47,0,0,0-19,47.92,5.38,5.38,0,0,0,5.16,5.61h.23a5.39,5.39,0,0,0,5.38-5.17A67.68,67.68,0,0,1,27.26,90.37a5.39,5.39,0,0,0-8.15-7.06Z"/><path d="M31.1,138.11a5.37,5.37,0,0,0,5.6-5.18,41.61,41.61,0,0,1,83.18,1.63,5.39,5.39,0,1,0,10.78,0,52.39,52.39,0,0,0-104.74-2A5.39,5.39,0,0,0,31.1,138.11Z"/><path d="M78.27,105.11A29.41,29.41,0,0,0,49,131.31a5.39,5.39,0,1,0,10.72,1.18,18.68,18.68,0,0,1,37.12,0,5.4,5.4,0,0,0,5.36,4.8l.59,0a5.39,5.39,0,0,0,4.77-5.95A29.4,29.4,0,0,0,78.27,105.11Z"/><path d="M158.08,56.92a77.64,77.64,0,0,0-15.74,3.69,5.39,5.39,0,0,0,1.77,10.48,5.23,5.23,0,0,0,1.77-.3,67.52,67.52,0,0,1,13.56-3.18,5.39,5.39,0,0,0-1.36-10.69Z"/></g></g></svg>